999
dxfrw 0.6.3
  0
SECTION
  2
HEADER
  9
$ACADVER
  1
AC1021
  9
$DWGCODEPAGE
  3
ANSI_1252
  9
$INSBASE
 10
0
 20
0
 30
0
  9
$EXTMIN
 10
7.105427357601002e-15
 20
0
 30
0
  9
$EXTMAX
 10
170
 20
120
 30
0
  9
$LIMMIN
 10
0
 20
0
  9
$LIMMAX
 10
420
 20
297
  9
$ORTHOMODE
 70
    0
  9
$REGENMODE
 70
    1
  9
$FILLMODE
 70
    1
  9
$QTEXTMODE
 70
    0
  9
$MIRRTEXT
 70
    0
  9
$LTSCALE
 40
1
  9
$ATTMODE
 70
    0
  9
$TEXTSIZE
 40
2.5
  9
$TRACEWID
 40
15.68
  9
$TEXTSTYLE
  7
STANDARD
  9
$CLAYER
  8
0
  9
$CELTYPE
  6
BYLAYER
  9
$CECOLOR
 62
  256
  9
$CELTSCALE
 40
1
  9
$DISPSILH
 70
    0
  9
$DIMSCALE
 40
1
  9
$DIMASZ
 40
2.5
  9
$DIMEXO
 40
0.625
  9
$DIMDLI
 40
3.75
  9
$DIMRND
 40
0
  9
$DIMDLE
 40
0
  9
$DIMEXE
 40
1.25
  9
$DIMTP
 40
0
  9
$DIMTM
 40
0
  9
$DIMTXT
 40
2.5
  9
$DIMCEN
 40
2.5
  9
$DIMTSZ
 40
0
  9
$DIMTOL
 70
    0
  9
$DIMLIM
 70
    0
  9
$DIMTIH
 70
    0
  9
$DIMTOH
 70
    0
  9
$DIMSE1
 70
    0
  9
$DIMSE2
 70
    0
  9
$DIMTAD
 70
    1
  9
$DIMZIN
 70
    8
  9
$DIMBLK
  1

  9
$DIMASO
 70
    1
  9
$DIMSHO
 70
    1
  9
$DIMPOST
  1

  9
$DIMAPOST
  1

  9
$DIMALT
 70
    0
  9
$DIMALTD
 70
    3
  9
$DIMALTF
 40
0.03937
  9
$DIMLFAC
 40
1
  9
$DIMTOFL
 70
    1
  9
$DIMTVP
 40
0
  9
$DIMTIX
 70
    0
  9
$DIMSOXD
 70
    0
  9
$DIMSAH
 70
    0
  9
$DIMBLK1
  1

  9
$DIMBLK2
  1

  9
$DIMSTYLE
  2
STANDARD
  9
$DIMCLRD
 70
    0
  9
$DIMCLRE
 70
    0
  9
$DIMCLRT
 70
    0
  9
$DIMTFAC
 40
1
  9
$DIMGAP
 40
0.625
  9
$DIMJUST
 70
    0
  9
$DIMSD1
 70
    0
  9
$DIMSD2
 70
    0
  9
$DIMTOLJ
 70
    0
  9
$DIMTZIN
 70
    8
  9
$DIMALTZ
 70
    0
  9
$DIMALTTZ
 70
    0
  9
$DIMUPT
 70
    0
  9
$DIMDEC
 70
    2
  9
$DIMTDEC
 70
    2
  9
$DIMALTU
 70
    2
  9
$DIMALTTD
 70
    3
  9
$DIMTXSTY
  7
standard
  9
$DIMAUNIT
 70
    0
  9
$DIMADEC
 70
    0
  9
$DIMALTRND
 40
0
  9
$DIMAZIN
 70
    0
  9
$DIMDSEP
 70
   44
  9
$DIMATFIT
 70
    3
  9
$DIMFRAC
 70
    0
  9
$DIMLDRBLK
  1
STANDARD
  9
$DIMLUNIT
 70
    2
  9
$DIMLWD
 70
   -2
  9
$DIMLWE
 70
   -2
  9
$DIMTMOVE
 70
    0
  9
$DIMFXL
 40
1
  9
$DIMFXLON
 70
    0
  9
$DIMJOGANG
 40
0.7854
  9
$DIMTFILL
 70
    0
  9
$DIMTFILLCLR
 70
    0
  9
$DIMARCSYM
 70
    0
  9
$DIMLTYPE
  6

  9
$DIMLTEX1
  6

  9
$DIMLTEX2
  6

  9
$LUNITS
 70
    2
  9
$LUPREC
 70
    4
  9
$SKETCHINC
 40
1
  9
$FILLETRAD
 40
0
  9
$AUNITS
 70
    0
  9
$AUPREC
 70
    2
  9
$MENU
  1
.
  9
$ELEVATION
 40
0
  9
$PELEVATION
 40
0
  9
$THICKNESS
 40
0
  9
$LIMCHECK
 70
    0
  9
$CHAMFERA
 40
0
  9
$CHAMFERB
 40
0
  9
$CHAMFERC
 40
0
  9
$CHAMFERD
 40
0
  9
$SKPOLY
 70
    0
  9
$USRTIMER
 70
    1
  9
$ANGBASE
 50
0
  9
$ANGDIR
 70
    0
  9
$PDMODE
 70
   34
  9
$PDSIZE
 40
0
  9
$PLINEWID
 40
0
  9
$SPLFRAME
 70
    0
  9
$SPLINETYPE
 70
    2
  9
$SPLINESEGS
 70
    8
  9
$HANDSEED
  5
20000
  9
$SURFTAB1
 70
    6
  9
$SURFTAB2
 70
    6
  9
$SURFTYPE
 70
    6
  9
$SURFU
 70
    6
  9
$SURFV
 70
    6
  9
$UCSBASE
  2

  9
$UCSNAME
  2

  9
$UCSORG
 10
0
 20
0
 30
0
  9
$UCSXDIR
 10
1
 20
0
 30
0
  9
$UCSYDIR
 10
0
 20
1
 30
0
  9
$UCSORTHOREF
  2

  9
$UCSORTHOVIEW
 70
    0
  9
$UCSORGTOP
 10
0
 20
0
 30
0
  9
$UCSORGBOTTOM
 10
0
 20
0
 30
0
  9
$UCSORGLEFT
 10
0
 20
0
 30
0
  9
$UCSORGRIGHT
 10
0
 20
0
 30
0
  9
$UCSORGFRONT
 10
0
 20
0
 30
0
  9
$UCSORGBACK
 10
0
 20
0
 30
0
  9
$PUCSBASE
  2

  9
$PUCSNAME
  2

  9
$PUCSORG
 10
0
 20
0
 30
0
  9
$PUCSXDIR
 10
1
 20
0
 30
0
  9
$PUCSYDIR
 10
0
 20
1
 30
0
  9
$PUCSORTHOREF
  2

  9
$PUCSORTHOVIEW
 70
    0
  9
$PUCSORGTOP
 10
0
 20
0
 30
0
  9
$PUCSORGBOTTOM
 10
0
 20
0
 30
0
  9
$PUCSORGLEFT
 10
0
 20
0
 30
0
  9
$PUCSORGRIGHT
 10
0
 20
0
 30
0
  9
$PUCSORGFRONT
 10
0
 20
0
 30
0
  9
$PUCSORGBACK
 10
0
 20
0
 30
0
  9
$USERI1
 70
    0
  9
$USERI2
 70
    0
  9
$USERI3
 70
    0
  9
$USERI4
 70
    0
  9
$USERI5
 70
    0
  9
$USERR1
 40
0
  9
$USERR2
 40
0
  9
$USERR3
 40
0
  9
$USERR4
 40
0
  9
$USERR5
 40
0
  9
$WORLDVIEW
 70
    1
  9
$SHADEDGE
 70
    3
  9
$SHADEDIF
 70
   70
  9
$TILEMODE
 70
    1
  9
$MAXACTVP
 70
   64
  9
$PINSBASE
 10
0
 20
0
 30
0
  9
$PLIMCHECK
 70
    0
  9
$PEXTMIN
 10
0
 20
0
 30
0
  9
$PEXTMAX
 10
0
 20
0
 30
0
  9
$GRIDMODE
 70
    1
  9
$SNAPSTYLE
 70
    0
  9
$GRIDUNIT
 10
0
 20
0
  9
$PLIMMIN
 10
0
 20
0
  9
$PLIMMAX
 10
297
 20
210
  9
$UNITMODE
 70
    0
  9
$VISRETAIN
 70
    1
  9
$PLINEGEN
 70
    0
  9
$PSLTSCALE
 70
    1
  9
$TREEDEPTH
 70
 3020
  9
$CMLSTYLE
  2
Standard
  9
$CMLJUST
 70
    0
  9
$CMLSCALE
 40
20
  9
$PROXYGRAPHICS
 70
    1
  9
$MEASUREMENT
 70
    1
  9
$CELWEIGHT
370
   -1
  9
$ENDCAPS
280
    0
  9
$JOINSTYLE
280
    0
  9
$LWDISPLAY
290
    0
  9
$INSUNITS
 70
    4
  9
$HYPERLINKBASE
  1

  9
$STYLESHEET
  1

  9
$XEDIT
290
    1
  9
$CEPSNTYPE
380
    0
  9
$PSTYLEMODE
290
    1
  9
$EXTNAMES
290
    1
  9
$PSVPSCALE
 40
1
  9
$OLESTARTUP
290
    0
  9
$SORTENTS
280
  127
  9
$INDEXCTL
280
    0
  9
$HIDETEXT
280
    1
  9
$XCLIPFRAME
290
    0
  9
$HALOGAP
280
    0
  9
$OBSCOLOR
 70
  257
  9
$OBSLTYPE
280
    0
  9
$INTERSECTIONDISPLAY
280
    0
  9
$INTERSECTIONCOLOR
 70
  257
  9
$DIMASSOC
280
    1
  9
$PROJECTNAME
  1

  9
$CAMERADISPLAY
290
    0
  9
$LENSLENGTH
 40
50
  9
$CAMERAHEIGHT
 40
0
  9
$STEPSPERSEC
 40
2
  9
$STEPSIZE
 40
50
  9
$3DDWFPREC
 40
2
  9
$PSOLWIDTH
 40
5
  9
$PSOLHEIGHT
 40
80
  9
$LOFTANG1
 40
1.570796326794897
  9
$LOFTANG2
 40
1.570796326794897
  9
$LOFTMAG1
 40
0
  9
$LOFTMAG2
 40
0
  9
$LOFTPARAM
 70
    7
  9
$LOFTNORMALS
280
    1
  9
$LATITUDE
 40
1
  9
$LONGITUDE
 40
1
  9
$NORTHDIRECTION
 40
0
  9
$TIMEZONE
 70
-8000
  9
$LIGHTGLYPHDISPLAY
280
    1
  9
$TILEMODELIGHTSYNCH
280
    1
  9
$SOLIDHIST
280
    1
  9
$SHOWHIST
280
    1
  9
$DWFFRAME
280
    2
  9
$DGNFRAME
280
    0
  9
$REALWORLDSCALE
290
    1
  9
$INTERFERECOLOR
 62
    1
  9
$CSHADOW
280
    0
  9
$SHADOWPLANELOCATION
 40
0
  0
ENDSEC
  0
SECTION
  2
CLASSES
  0
ENDSEC
  0
SECTION
  2
TABLES
  0
TABLE
  2
VPORT
  5
8
330
0
100
AcDbSymbolTable
 70
    1
  0
VPORT
  5
31
330
2
100
AcDbSymbolTableRecord
100
AcDbViewportTableRecord
  2
*ACTIVE
 70
    0
 10
0
 20
0
 11
1
 21
1
 12
102.0126471773291
 22
66.14882590404932
 13
0
 23
0
 14
10
 24
10
 15
10
 25
10
 16
0
 26
0
 36
1
 17
0
 27
0
 37
0
 40
144.5179168345495
 41
1.832720588235294
 42
50
 43
0
 44
0
 50
0
 51
0
 71
    0
 72
  100
 73
    1
 74
    3
 75
    0
 76
    1
 77
    0
 78
    0
281
    0
 65
    1
110
0
120
0
130
0
111
1
121
0
131
0
112
0
122
1
132
0
 79
    0
146
0
348
10020
 60
    7
 61
    5
292
1
282
    1
141
0
142
0
 63
  250
421
3358443
  0
ENDTAB
  0
TABLE
  2
LTYPE
  5
5
330
0
100
AcDbSymbolTable
 70
    4
  0
LTYPE
  5
14
330
5
100
AcDbSymbolTableRecord
100
AcDbLinetypeTableRecord
  2
ByBlock
 70
    0
  3

 72
   65
 73
    0
 40
0
  0
LTYPE
  5
15
330
5
100
AcDbSymbolTableRecord
100
AcDbLinetypeTableRecord
  2
ByLayer
 70
    0
  3

 72
   65
 73
    0
 40
0
  0
LTYPE
  5
16
330
5
100
AcDbSymbolTableRecord
100
AcDbLinetypeTableRecord
  2
Continuous
 70
    0
  3
Solid line
 72
   65
 73
    0
 40
0
  0
LTYPE
  5
32
330
5
100
AcDbSymbolTableRecord
100
AcDbLinetypeTableRecord
  2
DOT
 70
    0
  3
Dot . . . . . . . . . . . . . . . . . . . . . .
 72
   65
 73
    2
 40
6.35
 49
0
 74
    0
 49
-6.35
 74
    0
  0
LTYPE
  5
33
330
5
100
AcDbSymbolTableRecord
100
AcDbLinetypeTableRecord
  2
DOTTINY
 70
    0
  3
Dot (.15x) .....................................
 72
   65
 73
    2
 40
0.9525
 49
0
 74
    0
 49
-0.9525
 74
    0
  0
LTYPE
  5
34
330
5
100
AcDbSymbolTableRecord
100
AcDbLinetypeTableRecord
  2
DOT2
 70
    0
  3
Dot (.5x) .....................................
 72
   65
 73
    2
 40
3.175
 49
0
 74
    0
 49
-3.175
 74
    0
  0
LTYPE
  5
35
330
5
100
AcDbSymbolTableRecord
100
AcDbLinetypeTableRecord
  2
DOTX2
 70
    0
  3
Dot (2x) .  .  .  .  .  .  .  .  .  .  .  .  .
 72
   65
 73
    2
 40
12.7
 49
0
 74
    0
 49
-12.7
 74
    0
  0
LTYPE
  5
36
330
5
100
AcDbSymbolTableRecord
100
AcDbLinetypeTableRecord
  2
DASHED
 70
    0
  3
Dashed _ _ _ _ _ _ _ _ _ _ _ _ _ _ _ _ _
 72
   65
 73
    2
 40
19.05
 49
12.7
 74
    0
 49
-6.35
 74
    0
  0
LTYPE
  5
37
330
5
100
AcDbSymbolTableRecord
100
AcDbLinetypeTableRecord
  2
DASHEDTINY
 70
    0
  3
Dashed (.15x) _ _ _ _ _ _ _ _ _ _ _ _ _ _ _ _ _
 72
   65
 73
    2
 40
2.8575
 49
1.905
 74
    0
 49
-0.9525
 74
    0
  0
LTYPE
  5
38
330
5
100
AcDbSymbolTableRecord
100
AcDbLinetypeTableRecord
  2
DASHED2
 70
    0
  3
Dashed (.5x) _ _ _ _ _ _ _ _ _ _ _ _ _ _ _ _ _
 72
   65
 73
    2
 40
9.524999999999999
 49
6.35
 74
    0
 49
-3.175
 74
    0
  0
LTYPE
  5
39
330
5
100
AcDbSymbolTableRecord
100
AcDbLinetypeTableRecord
  2
DASHEDX2
 70
    0
  3
Dashed (2x) ____  ____  ____  ____  ____  ___
 72
   65
 73
    2
 40
38.09999999999999
 49
25.4
 74
    0
 49
-12.7
 74
    0
  0
LTYPE
  5
3A
330
5
100
AcDbSymbolTableRecord
100
AcDbLinetypeTableRecord
  2
DASHDOT
 70
    0
  3
Dash dot __ . __ . __ . __ . __ . __ . __ . __
 72
   65
 73
    4
 40
25.4
 49
12.7
 74
    0
 49
-6.35
 74
    0
 49
0
 74
    0
 49
-6.35
 74
    0
  0
LTYPE
  5
3B
330
5
100
AcDbSymbolTableRecord
100
AcDbLinetypeTableRecord
  2
DASHDOTTINY
 70
    0
  3
Dash dot (.15x) _._._._._._._._._._._._._._._.
 72
   65
 73
    4
 40
3.81
 49
1.905
 74
    0
 49
-0.9525
 74
    0
 49
0
 74
    0
 49
-0.9525
 74
    0
  0
LTYPE
  5
3C
330
5
100
AcDbSymbolTableRecord
100
AcDbLinetypeTableRecord
  2
DASHDOT2
 70
    0
  3
Dash dot (.5x) _._._._._._._._._._._._._._._.
 72
   65
 73
    4
 40
12.7
 49
6.35
 74
    0
 49
-3.175
 74
    0
 49
0
 74
    0
 49
-3.175
 74
    0
  0
LTYPE
  5
3D
330
5
100
AcDbSymbolTableRecord
100
AcDbLinetypeTableRecord
  2
DASHDOTX2
 70
    0
  3
Dash dot (2x) ____  .  ____  .  ____  .  ___
 72
   65
 73
    4
 40
50.8
 49
25.4
 74
    0
 49
-12.7
 74
    0
 49
0
 74
    0
 49
-12.7
 74
    0
  0
LTYPE
  5
3E
330
5
100
AcDbSymbolTableRecord
100
AcDbLinetypeTableRecord
  2
DIVIDE
 70
    0
  3
Divide ____ . . ____ . . ____ . . ____ . . ____
 72
   65
 73
    6
 40
31.75
 49
12.7
 74
    0
 49
-6.35
 74
    0
 49
0
 74
    0
 49
-6.35
 74
    0
 49
0
 74
    0
 49
-6.35
 74
    0
  0
LTYPE
  5
3F
330
5
100
AcDbSymbolTableRecord
100
AcDbLinetypeTableRecord
  2
DIVIDETINY
 70
    0
  3
Divide (.15x) __..__..__..__..__..__..__..__.._
 72
   65
 73
    6
 40
4.7625
 49
1.905
 74
    0
 49
-0.9525
 74
    0
 49
0
 74
    0
 49
-0.9525
 74
    0
 49
0
 74
    0
 49
-0.9525
 74
    0
  0
LTYPE
  5
40
330
5
100
AcDbSymbolTableRecord
100
AcDbLinetypeTableRecord
  2
DIVIDE2
 70
    0
  3
Divide (.5x) __..__..__..__..__..__..__..__.._
 72
   65
 73
    6
 40
15.875
 49
6.35
 74
    0
 49
-3.175
 74
    0
 49
0
 74
    0
 49
-3.175
 74
    0
 49
0
 74
    0
 49
-3.175
 74
    0
  0
LTYPE
  5
41
330
5
100
AcDbSymbolTableRecord
100
AcDbLinetypeTableRecord
  2
DIVIDEX2
 70
    0
  3
Divide (2x) ________  .  .  ________  .  .  _
 72
   65
 73
    6
 40
63.5
 49
25.4
 74
    0
 49
-12.7
 74
    0
 49
0
 74
    0
 49
-12.7
 74
    0
 49
0
 74
    0
 49
-12.7
 74
    0
  0
LTYPE
  5
42
330
5
100
AcDbSymbolTableRecord
100
AcDbLinetypeTableRecord
  2
BORDER
 70
    0
  3
Border __ __ . __ __ . __ __ . __ __ . __ __ .
 72
   65
 73
    6
 40
44.45
 49
12.7
 74
    0
 49
-6.35
 74
    0
 49
12.7
 74
    0
 49
-6.35
 74
    0
 49
0
 74
    0
 49
-6.35
 74
    0
  0
LTYPE
  5
43
330
5
100
AcDbSymbolTableRecord
100
AcDbLinetypeTableRecord
  2
BORDERTINY
 70
    0
  3
Border (.15x) __.__.__.__.__.__.__.__.__.__.__.
 72
   65
 73
    6
 40
6.6675
 49
1.905
 74
    0
 49
-0.9525
 74
    0
 49
1.905
 74
    0
 49
-0.9525
 74
    0
 49
0
 74
    0
 49
-0.9525
 74
    0
  0
LTYPE
  5
44
330
5
100
AcDbSymbolTableRecord
100
AcDbLinetypeTableRecord
  2
BORDER2
 70
    0
  3
Border (.5x) __.__.__.__.__.__.__.__.__.__.__.
 72
   65
 73
    6
 40
22.225
 49
6.35
 74
    0
 49
-3.175
 74
    0
 49
6.35
 74
    0
 49
-3.175
 74
    0
 49
0
 74
    0
 49
-3.175
 74
    0
  0
LTYPE
  5
45
330
5
100
AcDbSymbolTableRecord
100
AcDbLinetypeTableRecord
  2
BORDERX2
 70
    0
  3
Border (2x) ____  ____  .  ____  ____  .  ___
 72
   65
 73
    6
 40
88.89999999999999
 49
25.4
 74
    0
 49
-12.7
 74
    0
 49
25.4
 74
    0
 49
-12.7
 74
    0
 49
0
 74
    0
 49
-12.7
 74
    0
  0
LTYPE
  5
46
330
5
100
AcDbSymbolTableRecord
100
AcDbLinetypeTableRecord
  2
CENTER
 70
    0
  3
Center ____ _ ____ _ ____ _ ____ _ ____ _ ____
 72
   65
 73
    4
 40
50.8
 49
31.75
 74
    0
 49
-6.35
 74
    0
 49
6.35
 74
    0
 49
-6.35
 74
    0
  0
LTYPE
  5
47
330
5
100
AcDbSymbolTableRecord
100
AcDbLinetypeTableRecord
  2
CENTERTINY
 70
    0
  3
Center (.15x) ___ _ ___ _ ___ _ ___ _ ___ _ ___
 72
   65
 73
    4
 40
7.62
 49
4.7625
 74
    0
 49
-0.9525
 74
    0
 49
0.9525
 74
    0
 49
-0.9525
 74
    0
  0
LTYPE
  5
48
330
5
100
AcDbSymbolTableRecord
100
AcDbLinetypeTableRecord
  2
CENTER2
 70
    0
  3
Center (.5x) ___ _ ___ _ ___ _ ___ _ ___ _ ___
 72
   65
 73
    4
 40
28.575
 49
19.05
 74
    0
 49
-3.175
 74
    0
 49
3.175
 74
    0
 49
-3.175
 74
    0
  0
LTYPE
  5
49
330
5
100
AcDbSymbolTableRecord
100
AcDbLinetypeTableRecord
  2
CENTERX2
 70
    0
  3
Center (2x) ________  __  ________  __  _____
 72
   65
 73
    4
 40
101.6
 49
63.5
 74
    0
 49
-12.7
 74
    0
 49
12.7
 74
    0
 49
-12.7
 74
    0
  0
ENDTAB
  0
TABLE
  2
LAYER
  5
2
330
0
100
AcDbSymbolTable
 70
    1
  0
LAYER
  5
10
330
2
100
AcDbSymbolTableRecord
100
AcDbLayerTableRecord
  2
0
 70
    0
 62
    7
  6
CONTINUOUS
290
0
370
   -3
390
F
  0
LAYER
  5
4A
330
2
100
AcDbSymbolTableRecord
100
AcDbLayerTableRecord
  2
blocks
 70
    0
 62
    7
  6
CONTINUOUS
370
    0
390
F
  0
LAYER
  5
4B
330
2
100
AcDbSymbolTableRecord
100
AcDbLayerTableRecord
  2
construction
 70
    1
 62
    1
  6
DASHEDTINY
370
    0
390
F
  0
LAYER
  5
4C
330
2
100
AcDbSymbolTableRecord
100
AcDbLayerTableRecord
  2
default
 70
    0
 62
    7
  6
CONTINUOUS
370
   -3
390
F
  0
LAYER
  5
4D
330
2
100
AcDbSymbolTableRecord
100
AcDbLayerTableRecord
  2
dims
 70
    1
 62
    4
  6
CONTINUOUS
370
    0
390
F
  0
LAYER
  5
4E
330
2
100
AcDbSymbolTableRecord
100
AcDbLayerTableRecord
  2
hatch
 70
    1
 62
    7
  6
CONTINUOUS
370
    0
390
F
  0
ENDTAB
  0
TABLE
  2
STYLE
  5
3
330
0
100
AcDbSymbolTable
 70
    3
  0
STYLE
  5
4F
330
2
100
AcDbSymbolTableRecord
100
AcDbTextStyleTableRecord
  2
Standard
 70
    0
 40
0
 41
1
 50
0
 71
    0
 42
1
  3
txt
  4

  0
ENDTAB
  0
TABLE
  2
VIEW
  5
6
330
0
100
AcDbSymbolTable
 70
    0
  0
ENDTAB
  0
TABLE
  2
UCS
  5
7
330
0
100
AcDbSymbolTable
 70
    0
  0
ENDTAB
  0
TABLE
  2
APPID
  5
9
330
0
100
AcDbSymbolTable
 70
    1
  0
APPID
  5
12
330
9
100
AcDbSymbolTableRecord
100
AcDbRegAppTableRecord
  2
ACAD
 70
    0
  0
APPID
  5
50
330
9
100
AcDbSymbolTableRecord
100
AcDbRegAppTableRecord
  2
LibreCad
 70
    0
  0
ENDTAB
  0
TABLE
  2
DIMSTYLE
  5
A
330
0
100
AcDbSymbolTable
 70
    1
100
AcDbDimStyleTable
 71
    1
  0
DIMSTYLE
105
51
330
A
100
AcDbSymbolTableRecord
100
AcDbDimStyleTableRecord
  2
Standard
 70
    0
 40
1
 41
2.5
 42
0.625
 43
0.38
 44
1.25
 45
0
 46
0
 47
0
 48
0
 49
1
140
2.5
141
0.09
142
0
143
25.4
144
1
145
0
146
1
147
0.625
148
0
 71
    0
 72
    0
 73
    0
 74
    1
 75
    0
 76
    0
 77
    0
 78
    8
 79
    0
170
    0
171
    2
172
    0
173
    0
174
    0
175
    0
176
    0
177
    0
178
    0
179
    0
271
    2
272
    4
273
    2
274
    2
275
    0
276
    0
277
    2
278
   44
279
    0
280
    0
281
    0
282
    0
283
    1
284
    0
285
    0
286
    0
288
    0
289
    3
340
standard
341

371
   -2
372
   -2
  0
ENDTAB
  0
TABLE
  2
BLOCK_RECORD
  5
1
330
0
100
AcDbSymbolTable
 70
    2
  0
BLOCK_RECORD
  5
1F
330
1
100
AcDbSymbolTableRecord
100
AcDbBlockTableRecord
  2
*Model_Space
 70
    0
280
    1
281
    0
  0
BLOCK_RECORD
  5
1E
330
1
100
AcDbSymbolTableRecord
100
AcDbBlockTableRecord
  2
*Paper_Space
 70
    0
280
    1
281
    0
  0
BLOCK_RECORD
  5
52
330
1
100
AcDbSymbolTableRecord
100
AcDbBlockTableRecord
  2
*D5
 70
    0
280
    1
281
    0
  0
BLOCK_RECORD
  5
55
330
1
100
AcDbSymbolTableRecord
100
AcDbBlockTableRecord
  2
*D9
 70
    0
280
    1
281
    0
  0
BLOCK_RECORD
  5
58
330
1
100
AcDbSymbolTableRecord
100
AcDbBlockTableRecord
  2
*D2
 70
    0
280
    1
281
    0
  0
BLOCK_RECORD
  5
5B
330
1
100
AcDbSymbolTableRecord
100
AcDbBlockTableRecord
  2
*D8
 70
    0
280
    1
281
    0
  0
BLOCK_RECORD
  5
5E
330
1
100
AcDbSymbolTableRecord
100
AcDbBlockTableRecord
  2
*D3
 70
    0
280
    1
281
    0
  0
BLOCK_RECORD
  5
61
330
1
100
AcDbSymbolTableRecord
100
AcDbBlockTableRecord
  2
*D1
 70
    0
280
    1
281
    0
  0
BLOCK_RECORD
  5
64
330
1
100
AcDbSymbolTableRecord
100
AcDbBlockTableRecord
  2
*D7
 70
    0
280
    1
281
    0
  0
BLOCK_RECORD
  5
67
330
1
100
AcDbSymbolTableRecord
100
AcDbBlockTableRecord
  2
*D6
 70
    0
280
    1
281
    0
  0
BLOCK_RECORD
  5
6A
330
1
100
AcDbSymbolTableRecord
100
AcDbBlockTableRecord
  2
*D4
 70
    0
280
    1
281
    0
  0
BLOCK_RECORD
  5
6D
330
1
100
AcDbSymbolTableRecord
100
AcDbBlockTableRecord
  2
joystick
 70
    0
280
    1
281
    0
  0
BLOCK_RECORD
  5
70
330
1
100
AcDbSymbolTableRecord
100
AcDbBlockTableRecord
  2
display
 70
    0
280
    1
281
    0
  0
BLOCK_RECORD
  5
73
330
1
100
AcDbSymbolTableRecord
100
AcDbBlockTableRecord
  2
throttle
 70
    0
280
    1
281
    0
  0
BLOCK_RECORD
  5
76
330
1
100
AcDbSymbolTableRecord
100
AcDbBlockTableRecord
  2
cmark
 70
    0
280
    1
281
    0
  0
BLOCK_RECORD
  5
79
330
1
100
AcDbSymbolTableRecord
100
AcDbBlockTableRecord
  2
screw
 70
    0
280
    1
281
    0
  0
BLOCK_RECORD
  5
7C
330
1
100
AcDbSymbolTableRecord
100
AcDbBlockTableRecord
  2
a3
 70
    0
280
    1
281
    0
  0
ENDTAB
  0
ENDSEC
  0
SECTION
  2
BLOCKS
  0
BLOCK
  5
20
330
1F
100
AcDbEntity
  8
0
100
AcDbBlockBegin
  2
*Model_Space
 70
    0
 10
0
 20
0
 30
0
  3
*Model_Space
  1

  0
ENDBLK
  5
21
330
1F
100
AcDbEntity
  8
0
100
AcDbBlockEnd
  0
BLOCK
  5
1C
330
1B
100
AcDbEntity
  8
0
100
AcDbBlockBegin
  2
*Paper_Space
 70
    0
 10
0
 20
0
 30
0
  3
*Paper_Space
  1

  0
ENDBLK
  5
1D
330
1F
100
AcDbEntity
  8
0
100
AcDbBlockEnd
  0
BLOCK
  5
53
330
52
100
AcDbEntity
  8
0
100
AcDbBlockBegin
  2
*D5
 70
    1
 10
0
 20
0
  3
*D5
  1

  0
LINE
  5
7F
100
AcDbEntity
  8
dims
  6
ByBlock
 62
    0
370
   -2
100
AcDbLine
 10
134.975
 20
90.7
 11
161.25
 21
90.7
  0
LINE
  5
80
100
AcDbEntity
  8
dims
  6
ByBlock
 62
    0
370
   -2
100
AcDbLine
 10
134.975
 20
29.3
 11
161.25
 21
29.3
  0
LINE
  5
81
100
AcDbEntity
  8
dims
  6
ByBlock
 62
    0
370
   -2
100
AcDbLine
 10
160
 20
90.7
 11
160
 21
29.3
  0
MTEXT
  5
82
100
AcDbEntity
  8
dims
  6
CONTINUOUS
 62
    0
370
   -2
100
AcDbMText
 10
158.125
 20
60
 30
0
 40
2.5
 41
5.6944444444446
 71
    5
 72
    1
  1
61,4
  7
standard
210
0
220
0
230
1
 50
90
 73
    2
 44
1
  0
SOLID
  5
83
100
AcDbEntity
  8
dims
  6
ByBlock
 62
    0
370
   -2
100
AcDbTrace
 10
160
 20
90.7
 30
0
 11
160.4162846577728
 21
88.2
 31
0
 12
159.5837153422272
 22
88.2
 32
0
 13
159.5837153422272
 23
88.2
 33
0
  0
SOLID
  5
84
100
AcDbEntity
  8
dims
  6
ByBlock
 62
    0
370
   -2
100
AcDbTrace
 10
160
 20
29.3
 30
0
 11
159.5837153422272
 21
31.8
 31
0
 12
160.4162846577728
 22
31.8
 32
0
 13
160.4162846577728
 23
31.8
 33
0
  0
ENDBLK
  5
54
330
52
100
AcDbEntity
  8
0
100
AcDbBlockEnd
  0
BLOCK
  5
56
330
55
100
AcDbEntity
  8
0
100
AcDbBlockBegin
  2
*D9
 70
    1
 10
0
 20
0
  3
*D9
  1

  0
SOLID
  5
85
100
AcDbEntity
  8
dims
  6
ByBlock
 62
    0
370
   -2
100
AcDbTrace
 10
64.90932929597123
 20
80.40267491692833
 30
0
 11
66.38212529666679
 21
78.34011222536421
 31
0
 12
65.63429761517979
 22
77.97415399825356
 32
0
 13
65.63429761517979
 23
77.97415399825356
 33
0
  0
LINE
  5
86
100
AcDbEntity
  8
dims
  6
ByBlock
 62
    0
370
   -2
100
AcDbLine
 10
64.25
 20
81.75
 11
68.63331883803104
 21
72.7927832440234
  0
MTEXT
  5
87
100
AcDbEntity
  8
dims
  6
CONTINUOUS
 62
    0
370
   -2
100
AcDbMText
 10
68.45548042084073
 20
77.42189070043992
 30
0
 40
2.5
 41
3.472222222222377
 71
    5
 72
    1
  1
1,5
  7
standard
210
0
220
0
230
1
 50
296.0753555839485
 73
    2
 44
1
  0
ENDBLK
  5
57
330
55
100
AcDbEntity
  8
0
100
AcDbBlockEnd
  0
BLOCK
  5
59
330
58
100
AcDbEntity
  8
0
100
AcDbBlockBegin
  2
*D2
 70
    1
 10
0
 20
0
  3
*D2
  1

  0
LINE
  5
88
100
AcDbEntity
  8
dims
  6
ByBlock
 62
    0
370
   -2
100
AcDbLine
 10
25.87500000000001
 20
76
 11
8.75
 21
76
  0
LINE
  5
89
100
AcDbEntity
  8
dims
  6
ByBlock
 62
    0
370
   -2
100
AcDbLine
 10
25.87500000000001
 20
44
 11
8.75
 21
44
  0
LINE
  5
8A
100
AcDbEntity
  8
dims
  6
ByBlock
 62
    0
370
   -2
100
AcDbLine
 10
10
 20
76
 11
10
 21
44
  0
MTEXT
  5
8B
100
AcDbEntity
  8
dims
  6
CONTINUOUS
 62
    0
370
   -2
100
AcDbMText
 10
8.125
 20
60
 30
0
 40
2.5
 41
3.055555555555711
 71
    5
 72
    1
  1
32
  7
standard
210
0
220
0
230
1
 50
90
 73
    2
 44
1
  0
SOLID
  5
8C
100
AcDbEntity
  8
dims
  6
ByBlock
 62
    0
370
   -2
100
AcDbTrace
 10
10
 20
76
 30
0
 11
10.41628465777284
 21
73.5
 31
0
 12
9.58371534222716
 22
73.5
 32
0
 13
9.58371534222716
 23
73.5
 33
0
  0
SOLID
  5
8D
100
AcDbEntity
  8
dims
  6
ByBlock
 62
    0
370
   -2
100
AcDbTrace
 10
10
 20
44
 30
0
 11
9.58371534222716
 21
46.5
 31
0
 12
10.41628465777284
 22
46.5
 32
0
 13
10.41628465777284
 23
46.5
 33
0
  0
ENDBLK
  5
5A
330
58
100
AcDbEntity
  8
0
100
AcDbBlockEnd
  0
BLOCK
  5
5C
330
5B
100
AcDbEntity
  8
0
100
AcDbBlockBegin
  2
*D8
 70
    1
 10
0
 20
0
  3
*D8
  1

  0
LINE
  5
8E
100
AcDbEntity
  8
dims
  6
ByBlock
 62
    0
370
   -2
100
AcDbLine
 10
112.25
 20
28.475
 11
112.25
 21
-1.25
  0
LINE
  5
8F
100
AcDbEntity
  8
dims
  6
ByBlock
 62
    0
370
   -2
100
AcDbLine
 10
142.75
 20
28.475
 11
142.75
 21
-1.25
  0
LINE
  5
90
100
AcDbEntity
  8
dims
  6
ByBlock
 62
    0
370
   -2
100
AcDbLine
 10
112.25
 20
0
 11
142.75
 21
0
  0
MTEXT
  5
91
100
AcDbEntity
  8
dims
  6
CONTINUOUS
 62
    0
370
   -2
100
AcDbMText
 10
127.5
 20
1.875
 30
0
 40
2.5
 41
5.972222222222532
 71
    5
 72
    1
  1
30,5
  7
standard
210
0
220
0
230
1
 50
0
 73
    2
 44
1
  0
SOLID
  5
92
100
AcDbEntity
  8
dims
  6
ByBlock
 62
    0
370
   -2
100
AcDbTrace
 10
112.25
 20
0
 30
0
 11
114.75
 21
0.4162846577728402
 31
0
 12
114.75
 22
-0.4162846577728408
 32
0
 13
114.75
 23
-0.4162846577728408
 33
0
  0
SOLID
  5
93
100
AcDbEntity
  8
dims
  6
ByBlock
 62
    0
370
   -2
100
AcDbTrace
 10
142.75
 20
0
 30
0
 11
140.25
 21
-0.4162846577728404
 31
0
 12
140.25
 22
0.4162846577728404
 32
0
 13
140.25
 23
0.4162846577728404
 33
0
  0
ENDBLK
  5
5D
330
5B
100
AcDbEntity
  8
0
100
AcDbBlockEnd
  0
BLOCK
  5
5F
330
5E
100
AcDbEntity
  8
0
100
AcDbBlockBegin
  2
*D3
 70
    1
 10
0
 20
0
  3
*D3
  1

  0
LINE
  5
94
100
AcDbEntity
  8
dims
  6
ByBlock
 62
    0
370
   -2
100
AcDbLine
 10
54.70000000000002
 20
113.325
 11
54.70000000000002
 21
131.25
  0
LINE
  5
95
100
AcDbEntity
  8
dims
  6
ByBlock
 62
    0
370
   -2
100
AcDbLine
 10
115.3
 20
113.325
 11
115.3
 21
131.25
  0
LINE
  5
96
100
AcDbEntity
  8
dims
  6
ByBlock
 62
    0
370
   -2
100
AcDbLine
 10
54.70000000000002
 20
130
 11
115.3
 21
130
  0
MTEXT
  5
97
100
AcDbEntity
  8
dims
  6
CONTINUOUS
 62
    0
370
   -2
100
AcDbMText
 10
85.00000000000001
 20
131.875
 30
0
 40
2.5
 41
5.972222222222532
 71
    5
 72
    1
  1
60,6
  7
standard
210
0
220
0
230
1
 50
0
 73
    2
 44
1
  0
SOLID
  5
98
100
AcDbEntity
  8
dims
  6
ByBlock
 62
    0
370
   -2
100
AcDbTrace
 10
54.70000000000002
 20
130
 30
0
 11
57.20000000000002
 21
130.4162846577728
 31
0
 12
57.20000000000002
 22
129.5837153422272
 32
0
 13
57.20000000000002
 23
129.5837153422272
 33
0
  0
SOLID
  5
99
100
AcDbEntity
  8
dims
  6
ByBlock
 62
    0
370
   -2
100
AcDbTrace
 10
115.3
 20
130
 30
0
 11
112.8
 21
129.5837153422272
 31
0
 12
112.8
 22
130.4162846577728
 32
0
 13
112.8
 23
130.4162846577728
 33
0
  0
ENDBLK
  5
60
330
5E
100
AcDbEntity
  8
0
100
AcDbBlockEnd
  0
BLOCK
  5
62
330
61
100
AcDbEntity
  8
0
100
AcDbBlockBegin
  2
*D1
 70
    1
 10
0
 20
0
  3
*D1
  1

  0
LINE
  5
9A
100
AcDbEntity
  8
dims
  6
ByBlock
 62
    0
370
   -2
100
AcDbLine
 10
26.50000000000001
 20
76.625
 11
26.50000000000001
 21
91.25
  0
LINE
  5
9B
100
AcDbEntity
  8
dims
  6
ByBlock
 62
    0
370
   -2
100
AcDbLine
 10
58.50000000000001
 20
76.625
 11
58.50000000000001
 21
91.25
  0
LINE
  5
9C
100
AcDbEntity
  8
dims
  6
ByBlock
 62
    0
370
   -2
100
AcDbLine
 10
26.50000000000001
 20
90
 11
58.50000000000001
 21
90
  0
MTEXT
  5
9D
100
AcDbEntity
  8
dims
  6
CONTINUOUS
 62
    0
370
   -2
100
AcDbMText
 10
42.50000000000001
 20
91.875
 30
0
 40
2.5
 41
3.055555555555711
 71
    5
 72
    1
  1
32
  7
standard
210
0
220
0
230
1
 50
0
 73
    2
 44
1
  0
SOLID
  5
9E
100
AcDbEntity
  8
dims
  6
ByBlock
 62
    0
370
   -2
100
AcDbTrace
 10
26.50000000000001
 20
90
 30
0
 11
29.00000000000001
 21
90.41628465777283
 31
0
 12
29.00000000000001
 22
89.58371534222717
 32
0
 13
29.00000000000001
 23
89.58371534222717
 33
0
  0
SOLID
  5
9F
100
AcDbEntity
  8
dims
  6
ByBlock
 62
    0
370
   -2
100
AcDbTrace
 10
58.50000000000001
 20
90
 30
0
 11
56.00000000000001
 21
89.58371534222717
 31
0
 12
56.00000000000001
 22
90.41628465777283
 32
0
 13
56.00000000000001
 23
90.41628465777283
 33
0
  0
ENDBLK
  5
63
330
61
100
AcDbEntity
  8
0
100
AcDbBlockEnd
  0
BLOCK
  5
65
330
64
100
AcDbEntity
  8
0
100
AcDbBlockBegin
  2
*D7
 70
    1
 10
0
 20
0
  3
*D7
  1

  0
LINE
  5
A0
100
AcDbEntity
  8
dims
  6
ByBlock
 62
    0
370
   -2
100
AcDbLine
 10
20.55286038194298
 20
82.37499345453784
 11
20.82292241019202
 21
141.3835466269416
  0
LINE
  5
A1
100
AcDbEntity
  8
dims
  6
ByBlock
 62
    0
370
   -2
100
AcDbLine
 10
64.25286038194297
 20
82.17499345453784
 11
64.52292241019201
 21
141.1835466269416
  0
LINE
  5
A2
100
AcDbEntity
  8
dims
  6
ByBlock
 62
    0
370
   -2
100
AcDbLine
 10
20.81720164630608
 20
140.1335597178659
 11
64.51720164630608
 21
139.9335597178659
  0
MTEXT
  5
A3
100
AcDbEntity
  8
dims
  6
CONTINUOUS
 62
    0
370
   -2
100
AcDbMText
 10
42.67578279213497
 20
141.9085400814794
 30
0
 40
2.5
 41
6.250000000000156
 71
    5
 72
    1
  1
43,7
  7
standard
210
0
220
0
230
1
 50
359.7377785836035
 73
    2
 44
1
  0
SOLID
  5
A4
100
AcDbEntity
  8
dims
  6
ByBlock
 62
    0
370
   -2
100
AcDbTrace
 10
20.81720164630608
 20
140.1335597178659
 30
0
 11
23.3190806374466
 21
140.5383984882261
 31
0
 12
23.31527029146827
 22
139.7058378919619
 32
0
 13
23.31527029146827
 23
139.7058378919619
 33
0
  0
SOLID
  5
A5
100
AcDbEntity
  8
dims
  6
ByBlock
 62
    0
370
   -2
100
AcDbTrace
 10
64.51720164630608
 20
139.9335597178659
 30
0
 11
62.01532265516556
 21
139.5287209475057
 31
0
 12
62.01913300114389
 22
140.3612815437698
 32
0
 13
62.01913300114389
 23
140.3612815437698
 33
0
  0
ENDBLK
  5
66
330
64
100
AcDbEntity
  8
0
100
AcDbBlockEnd
  0
BLOCK
  5
68
330
67
100
AcDbEntity
  8
0
100
AcDbBlockBegin
  2
*D6
 70
    1
 10
0
 20
0
  3
*D6
  1

  0
LINE
  5
A6
100
AcDbEntity
  8
dims
  6
ByBlock
 62
    0
370
   -2
100
AcDbLine
 10
127.5
 20
59.375
 11
127.5
 21
8.75
  0
LINE
  5
A7
100
AcDbEntity
  8
dims
  6
ByBlock
 62
    0
370
   -2
100
AcDbLine
 10
136.35
 20
59.375
 11
136.35
 21
8.75
  0
LINE
  5
A8
100
AcDbEntity
  8
dims
  6
ByBlock
 62
    0
370
   -2
100
AcDbLine
 10
127.5
 20
10
 11
136.35
 21
10
  0
MTEXT
  5
A9
100
AcDbEntity
  8
dims
  6
CONTINUOUS
 62
    0
370
   -2
100
AcDbMText
 10
131.925
 20
11.875
 30
0
 40
2.5
 41
5.972222222222378
 71
    5
 72
    1
  1
8,85
  7
standard
210
0
220
0
230
1
 50
0
 73
    2
 44
1
  0
SOLID
  5
AA
100
AcDbEntity
  8
dims
  6
ByBlock
 62
    0
370
   -2
100
AcDbTrace
 10
127.5
 20
10
 30
0
 11
130
 21
10.41628465777284
 31
0
 12
130
 22
9.583715342227158
 32
0
 13
130
 23
9.583715342227158
 33
0
  0
SOLID
  5
AB
100
AcDbEntity
  8
dims
  6
ByBlock
 62
    0
370
   -2
100
AcDbTrace
 10
136.35
 20
10
 30
0
 11
133.85
 21
9.58371534222716
 31
0
 12
133.85
 22
10.41628465777284
 32
0
 13
133.85
 23
10.41628465777284
 33
0
  0
ENDBLK
  5
69
330
67
100
AcDbEntity
  8
0
100
AcDbBlockEnd
  0
BLOCK
  5
6B
330
6A
100
AcDbEntity
  8
0
100
AcDbBlockBegin
  2
*D4
 70
    1
 10
0
 20
0
  3
*D4
  1

  0
LINE
  5
AC
100
AcDbEntity
  8
dims
  6
ByBlock
 62
    0
370
   -2
100
AcDbLine
 10
115.925
 20
112.7
 11
141.25
 21
112.7
  0
LINE
  5
AD
100
AcDbEntity
  8
dims
  6
ByBlock
 62
    0
370
   -2
100
AcDbLine
 10
115.925
 20
97.7
 11
141.25
 21
97.7
  0
LINE
  5
AE
100
AcDbEntity
  8
dims
  6
ByBlock
 62
    0
370
   -2
100
AcDbLine
 10
140
 20
112.7
 11
140
 21
97.7
  0
MTEXT
  5
AF
100
AcDbEntity
  8
dims
  6
CONTINUOUS
 62
    0
370
   -2
100
AcDbMText
 10
138.125
 20
105.2
 30
0
 40
2.5
 41
2.500000000000155
 71
    5
 72
    1
  1
15
  7
standard
210
0
220
0
230
1
 50
90
 73
    2
 44
1
  0
SOLID
  5
B0
100
AcDbEntity
  8
dims
  6
ByBlock
 62
    0
370
   -2
100
AcDbTrace
 10
140
 20
112.7
 30
0
 11
140.4162846577728
 21
110.2
 31
0
 12
139.5837153422272
 22
110.2
 32
0
 13
139.5837153422272
 23
110.2
 33
0
  0
SOLID
  5
B1
100
AcDbEntity
  8
dims
  6
ByBlock
 62
    0
370
   -2
100
AcDbTrace
 10
140
 20
97.7
 30
0
 11
139.5837153422272
 21
100.2
 31
0
 12
140.4162846577728
 22
100.2
 32
0
 13
140.4162846577728
 23
100.2
 33
0
  0
ENDBLK
  5
6C
330
6A
100
AcDbEntity
  8
0
100
AcDbBlockEnd
  0
BLOCK
  5
6E
330
6D
100
AcDbEntity
  8
0
100
AcDbBlockBegin
  2
joystick
 70
    0
 10
0
 20
0
  3
joystick
  1

  0
HATCH
  5
B2
100
AcDbEntity
  8
0
  6
ByLayer
 62
  256
370
   -1
100
AcDbHatch
 10
0
 20
0
 30
0
210
0
220
0
230
1
  2
ansi31
 70
    0
 71
    0
 91
    1
 92
    0
 93
    4
 72
    1
 10
-16
 20
16
 11
16
 21
16
 72
    1
 10
16
 20
16
 11
16
 21
-16
 72
    1
 10
16
 20
-16
 11
-16
 21
-16
 72
    1
 10
-16
 20
-16
 11
-16
 21
16
 97
    0
 75
    0
 76
    1
 52
0
 41
5
 77
    0
 78
    0
 98
    0
  0
LINE
  5
B3
100
AcDbEntity
  8
0
  6
ByLayer
 62
  256
370
   -1
100
AcDbLine
 10
-16
 20
16
 11
16
 21
16
  0
LINE
  5
B4
100
AcDbEntity
  8
0
  6
ByLayer
 62
  256
370
   -1
100
AcDbLine
 10
16
 20
16
 11
16
 21
-16
  0
LINE
  5
B5
100
AcDbEntity
  8
0
  6
ByLayer
 62
  256
370
   -1
100
AcDbLine
 10
16
 20
-16
 11
-16
 21
-16
  0
LINE
  5
B6
100
AcDbEntity
  8
0
  6
ByLayer
 62
  256
370
   -1
100
AcDbLine
 10
-16
 20
-16
 11
-16
 21
16
  0
CIRCLE
  5
B7
100
AcDbEntity
  8
0
  6
ByLayer
 62
  256
370
   -1
100
AcDbCircle
 10
-21.75
 20
21.75
 40
1.5
  0
CIRCLE
  5
B8
100
AcDbEntity
  8
0
  6
ByLayer
 62
  256
370
   -1
100
AcDbCircle
 10
21.75
 20
21.75
 40
1.5
  0
CIRCLE
  5
B9
100
AcDbEntity
  8
0
  6
ByLayer
 62
  256
370
   -1
100
AcDbCircle
 10
21.75
 20
-21.75
 40
1.5
  0
CIRCLE
  5
BA
100
AcDbEntity
  8
0
  6
ByLayer
 62
  256
370
   -1
100
AcDbCircle
 10
-21.75
 20
-21.75
 40
1.5
  0
LINE
  5
BB
100
AcDbEntity
  8
construction
  6
ByLayer
 62
  256
370
   -1
100
AcDbLine
 10
21.75
 20
-5.327037639127341e-15
 11
21.75
 21
21.75
  0
LINE
  5
BC
100
AcDbEntity
  8
construction
  6
ByLayer
 62
  256
370
   -1
100
AcDbLine
 10
16
 20
-3.918740332231607e-15
 11
16
 21
21.75
  0
LINE
  5
BD
100
AcDbEntity
  8
construction
  6
ByLayer
 62
  256
370
   -1
100
AcDbLine
 10
0
 20
0
 11
1.331759409781835e-15
 21
21.75
  0
LINE
  5
BE
100
AcDbEntity
  8
construction
  6
ByLayer
 62
  256
370
   -1
100
AcDbLine
 10
-16
 20
1.959370166115804e-15
 11
-16
 21
21.75
  0
LINE
  5
BF
100
AcDbEntity
  8
construction
  6
ByLayer
 62
  256
370
   -1
100
AcDbLine
 10
-21.75
 20
2.663518819563671e-15
 11
-21.75
 21
21.75
  0
LINE
  5
C0
100
AcDbEntity
  8
construction
  6
ByLayer
 62
  256
370
   -1
100
AcDbLine
 10
6.658797048909176e-15
 20
21.75
 11
-21.75
 21
21.75
  0
LINE
  5
C1
100
AcDbEntity
  8
construction
  6
ByLayer
 62
  256
370
   -1
100
AcDbLine
 10
4.898425415289509e-15
 20
16
 11
-21.75
 21
16
  0
LINE
  5
C2
100
AcDbEntity
  8
construction
  6
ByLayer
 62
  256
370
   -1
100
AcDbLine
 10
0
 20
0
 11
-21.75
 21
-0
  0
LINE
  5
C3
100
AcDbEntity
  8
construction
  6
ByLayer
 62
  256
370
   -1
100
AcDbLine
 10
-2.939055249173705e-15
 20
-16
 11
-21.75
 21
-16
  0
LINE
  5
C4
100
AcDbEntity
  8
construction
  6
ByLayer
 62
  256
370
   -1
100
AcDbLine
 10
-3.995278229345506e-15
 20
-21.75
 11
-21.75
 21
-21.75
  0
LINE
  5
C5
100
AcDbEntity
  8
construction
  6
ByLayer
 62
  256
370
   -1
100
AcDbLine
 10
9.796850830579018e-16
 20
16
 11
21.75
 21
16
  0
LINE
  5
C6
100
AcDbEntity
  8
construction
  6
ByLayer
 62
  256
370
   -1
100
AcDbLine
 10
1.331759409781835e-15
 20
21.75
 11
21.75
 21
21.75
  0
LINE
  5
C7
100
AcDbEntity
  8
construction
  6
ByLayer
 62
  256
370
   -1
100
AcDbLine
 10
0
 20
0
 11
21.75
 21
0
  0
LINE
  5
C8
100
AcDbEntity
  8
construction
  6
ByLayer
 62
  256
370
   -1
100
AcDbLine
 10
-2.939055249173705e-15
 20
-16
 11
21.75
 21
-16
  0
LINE
  5
C9
100
AcDbEntity
  8
construction
  6
ByLayer
 62
  256
370
   -1
100
AcDbLine
 10
-3.995278229345506e-15
 20
-21.75
 11
21.75
 21
-21.75
  0
LINE
  5
CA
100
AcDbEntity
  8
construction
  6
ByLayer
 62
  256
370
   -1
100
AcDbLine
 10
-21.75
 20
7.990556458691012e-15
 11
-21.75
 21
-21.75
  0
LINE
  5
CB
100
AcDbEntity
  8
construction
  6
ByLayer
 62
  256
370
   -1
100
AcDbLine
 10
-16
 20
5.878110498347411e-15
 11
-16
 21
-21.75
  0
LINE
  5
CC
100
AcDbEntity
  8
construction
  6
ByLayer
 62
  256
370
   -1
100
AcDbLine
 10
0
 20
0
 11
-1.331759409781835e-15
 21
-21.75
  0
LINE
  5
CD
100
AcDbEntity
  8
construction
  6
ByLayer
 62
  256
370
   -1
100
AcDbLine
 10
16
 20
-3.918740332231607e-15
 11
16
 21
-21.75
  0
LINE
  5
CE
100
AcDbEntity
  8
construction
  6
ByLayer
 62
  256
370
   -1
100
AcDbLine
 10
21.75
 20
-5.327037639127341e-15
 11
21.75
 21
-21.75
  0
ENDBLK
  5
6F
330
6D
100
AcDbEntity
  8
0
100
AcDbBlockEnd
  0
BLOCK
  5
71
330
70
100
AcDbEntity
  8
0
100
AcDbBlockBegin
  2
display
 70
    0
 10
0
 20
0
  3
display
  1

  0
HATCH
  5
CF
100
AcDbEntity
  8
hatch
  6
ByLayer
 62
  256
370
   -1
100
AcDbHatch
 10
0
 20
0
 30
0
210
0
220
0
230
1
  2
ansi31
 70
    0
 71
    0
 91
    1
 92
    0
 93
    4
 72
    1
 10
-30.3
 20
7.5
 11
30.3
 21
7.5
 72
    1
 10
30.3
 20
7.5
 11
30.3
 21
-7.5
 72
    1
 10
30.3
 20
-7.5
 11
-30.3
 21
-7.5
 72
    1
 10
-30.3
 20
-7.5
 11
-30.3
 21
7.5
 97
    0
 75
    0
 76
    1
 52
0
 41
5
 77
    0
 78
    0
 98
    0
  0
HATCH
  5
D0
100
AcDbEntity
  8
0
  6
ByLayer
 62
  256
370
   -1
100
AcDbHatch
 10
0
 20
0
 30
0
210
0
220
0
230
1
  2
ansi31
 70
    0
 71
    0
 91
    1
 92
    0
 93
    4
 72
    1
 10
-30.3
 20
-7.5
 11
30.3
 21
-7.5
 72
    1
 10
30.3
 20
-7.5
 11
30.3
 21
7.5
 72
    1
 10
30.3
 20
7.5
 11
-30.3
 21
7.5
 72
    1
 10
-30.3
 20
7.5
 11
-30.3
 21
-7.5
 97
    0
 75
    0
 76
    1
 52
0
 41
5
 77
    0
 78
    0
 98
    0
  0
CIRCLE
  5
D1
100
AcDbEntity
  8
0
  6
ByLayer
 62
  256
370
   -1
100
AcDbCircle
 10
-40.45
 20
4.5
 40
1.5
  0
CIRCLE
  5
D2
100
AcDbEntity
  8
0
  6
ByLayer
 62
  256
370
   -1
100
AcDbCircle
 10
-40.45
 20
-4.5
 40
1.5
  0
CIRCLE
  5
D3
100
AcDbEntity
  8
0
  6
ByLayer
 62
  256
370
   -1
100
AcDbCircle
 10
36.55
 20
4.5
 40
1.5
  0
CIRCLE
  5
D4
100
AcDbEntity
  8
0
  6
ByLayer
 62
  256
370
   -1
100
AcDbCircle
 10
36.55
 20
-4.5
 40
1.5
  0
LINE
  5
D5
100
AcDbEntity
  8
0
  6
ByLayer
 62
  256
370
   -1
100
AcDbLine
 10
-30.3
 20
-7.5
 11
30.3
 21
-7.5
  0
LINE
  5
D6
100
AcDbEntity
  8
0
  6
ByLayer
 62
  256
370
   -1
100
AcDbLine
 10
30.3
 20
-7.5
 11
30.3
 21
7.5
  0
LINE
  5
D7
100
AcDbEntity
  8
0
  6
ByLayer
 62
  256
370
   -1
100
AcDbLine
 10
30.3
 20
7.5
 11
-30.3
 21
7.5
  0
LINE
  5
D8
100
AcDbEntity
  8
0
  6
ByLayer
 62
  256
370
   -1
100
AcDbLine
 10
-30.3
 20
7.5
 11
-30.3
 21
-7.5
  0
LWPOLYLINE
  5
D9
100
AcDbEntity
  8
hatch
  6
ByLayer
 62
  256
370
   -1
100
AcDbPolyline
 90
    4
 70
    1
 43
0
 10
-30.3
 20
7.5
 10
30.3
 20
7.5
 10
30.3
 20
-7.5
 10
-30.3
 20
-7.5
  0
DIMENSION
  5
DA
100
AcDbEntity
  8
dims
  6
ByLayer
 62
  256
370
   -1
100
AcDbDimension
 10
-80.00000000000001
 20
-7.499999999999988
 30
0
 11
-81.87500000000001
 21
6.446862629242572e-15
 31
0
 70
   33
 71
    5
  3
Standard
 53
0
210
0
220
0
230
1
100
AcDbAlignedDimension
 13
-30.3
 23
7.5
 33
0
 14
-30.3
 24
-7.5
 34
0
  0
DIMENSION
  5
DB
100
AcDbEntity
  8
dims
  6
ByLayer
 62
  256
370
   -1
100
AcDbDimension
 10
30.3
 20
30
 30
0
 11
1.148068456708479e-16
 21
31.875
 31
0
 70
   33
 71
    5
  3
Standard
 53
0
210
0
220
0
230
1
100
AcDbAlignedDimension
 13
-30.3
 23
7.5
 33
0
 14
30.3
 24
7.5
 34
0
  0
LINE
  5
DC
100
AcDbEntity
  8
construction
  6
ByLayer
 62
  256
370
   -1
100
AcDbLine
 10
39.3
 20
7.5
 11
39.3
 21
-7.5
  0
LINE
  5
DD
100
AcDbEntity
  8
construction
  6
ByLayer
 62
  256
370
   -1
100
AcDbLine
 10
36.55
 20
-9.429468924432305e-15
 11
36.55
 21
-7.5
  0
LINE
  5
DE
100
AcDbEntity
  8
construction
  6
ByLayer
 62
  256
370
   -1
100
AcDbLine
 10
30.3
 20
7.5
 11
30.3
 21
-7.5
  0
LINE
  5
DF
100
AcDbEntity
  8
construction
  6
ByLayer
 62
  256
370
   -1
100
AcDbLine
 10
-1.949999999999999
 20
0
 11
-1.95
 21
-7.5
  0
LINE
  5
E0
100
AcDbEntity
  8
construction
  6
ByLayer
 62
  256
370
   -1
100
AcDbLine
 10
4.440889999999999e-16
 20
7.5
 11
-4.996007500000001e-16
 21
-7.5
  0
LINE
  5
E1
100
AcDbEntity
  8
construction
  6
ByLayer
 62
  256
370
   -1
100
AcDbLine
 10
-40.45
 20
1.414420338664846e-14
 11
-40.45
 21
-7.5
  0
LINE
  5
E2
100
AcDbEntity
  8
construction
  6
ByLayer
 62
  256
370
   -1
100
AcDbLine
 10
-43.2
 20
1.515450362855192e-14
 11
-43.2
 21
-7.5
  0
LINE
  5
E3
100
AcDbEntity
  8
construction
  6
ByLayer
 62
  256
370
   -1
100
AcDbLine
 10
-30.3
 20
1.546677824877663e-14
 11
-30.3
 21
-7.5
  0
LINE
  5
E4
100
AcDbEntity
  8
construction
  6
ByLayer
 62
  256
370
   -1
100
AcDbLine
 10
36.55
 20
-9.429468924432305e-15
 11
36.55
 21
7.5
  0
LINE
  5
E5
100
AcDbEntity
  8
construction
  6
ByLayer
 62
  256
370
   -1
100
AcDbLine
 10
-1.949999999999999
 20
0
 11
-1.949999999999999
 21
7.5
  0
LINE
  5
E6
100
AcDbEntity
  8
construction
  6
ByLayer
 62
  256
370
   -1
100
AcDbLine
 10
-30.3
 20
-1.579742196430867e-15
 11
-30.3
 21
7.5
  0
LINE
  5
E7
100
AcDbEntity
  8
construction
  6
ByLayer
 62
  256
370
   -1
100
AcDbLine
 10
-40.45
 20
4.714734462216152e-15
 11
-40.45
 21
7.5
  0
LINE
  5
E8
100
AcDbEntity
  8
construction
  6
ByLayer
 62
  256
370
   -1
100
AcDbLine
 10
-43.2
 20
5.051501209517306e-15
 11
-43.2
 21
7.5
  0
LINE
  5
E9
100
AcDbEntity
  8
construction
  6
ByLayer
 62
  256
370
   -1
100
AcDbLine
 10
-1.949999999999998
 20
7.5
 11
39.3
 21
7.5
  0
LINE
  5
EA
100
AcDbEntity
  8
construction
  6
ByLayer
 62
  256
370
   -1
100
AcDbLine
 10
-1.95
 20
4.5
 11
39.3
 21
4.5
  0
LINE
  5
EB
100
AcDbEntity
  8
construction
  6
ByLayer
 62
  256
370
   -1
100
AcDbLine
 10
-1.949999999999999
 20
0
 11
39.3
 21
0
  0
LINE
  5
EC
100
AcDbEntity
  8
construction
  6
ByLayer
 62
  256
370
   -1
100
AcDbLine
 10
-1.95
 20
-4.5
 11
39.3
 21
-4.5
  0
LINE
  5
ED
100
AcDbEntity
  8
construction
  6
ByLayer
 62
  256
370
   -1
100
AcDbLine
 10
-1.95
 20
-7.5
 11
39.3
 21
-7.5
  0
LINE
  5
EE
100
AcDbEntity
  8
construction
  6
ByLayer
 62
  256
370
   -1
100
AcDbLine
 10
-1.949999999999997
 20
7.5
 11
-43.2
 21
7.5
  0
LINE
  5
EF
100
AcDbEntity
  8
construction
  6
ByLayer
 62
  256
370
   -1
100
AcDbLine
 10
-1.949999999999998
 20
4.5
 11
-43.2
 21
4.5
  0
LINE
  5
F0
100
AcDbEntity
  8
construction
  6
ByLayer
 62
  256
370
   -1
100
AcDbLine
 10
-1.949999999999999
 20
0
 11
-43.2
 21
-0
  0
LINE
  5
F1
100
AcDbEntity
  8
construction
  6
ByLayer
 62
  256
370
   -1
100
AcDbLine
 10
-1.95
 20
-4.5
 11
-43.2
 21
-4.5
  0
LINE
  5
F2
100
AcDbEntity
  8
construction
  6
ByLayer
 62
  256
370
   -1
100
AcDbLine
 10
-1.95
 20
-7.5
 11
-43.2
 21
-7.5
  0
ENDBLK
  5
72
330
70
100
AcDbEntity
  8
0
100
AcDbBlockEnd
  0
BLOCK
  5
74
330
73
100
AcDbEntity
  8
0
100
AcDbBlockBegin
  2
throttle
 70
    0
 10
0
 20
0
  3
throttle
  1

  0
HATCH
  5
F3
100
AcDbEntity
  8
0
  6
ByLayer
 62
  256
370
   -1
100
AcDbHatch
 10
0
 20
0
 30
0
210
0
220
0
230
1
  2
ansi31
 70
    0
 71
    0
 91
    1
 92
    0
 93
    6
 72
    1
 10
0
 20
0
 11
1.850000000000002
 21
30.7
 72
    1
 10
1.850000000000002
 20
30.7
 11
6.850000000000001
 21
30.7
 72
    1
 10
6.850000000000001
 20
30.7
 11
8.850000000000001
 21
0
 72
    1
 10
8.850000000000001
 20
0
 11
6.850000000000001
 21
-30.7
 72
    1
 10
6.850000000000001
 20
-30.7
 11
1.850000000000002
 21
-30.7
 72
    1
 10
1.850000000000002
 20
-30.7
 11
0
 21
0
 97
    0
 75
    0
 76
    1
 52
0
 41
5
 77
    0
 78
    0
 98
    0
  0
CIRCLE
  5
F4
100
AcDbEntity
  8
0
  6
ByLayer
 62
  256
370
   -1
100
AcDbCircle
 10
-15.25
 20
30.7
 40
1.75
  0
CIRCLE
  5
F5
100
AcDbEntity
  8
0
  6
ByLayer
 62
  256
370
   -1
100
AcDbCircle
 10
15.25
 20
30.7
 40
1.75
  0
CIRCLE
  5
F6
100
AcDbEntity
  8
0
  6
ByLayer
 62
  256
370
   -1
100
AcDbCircle
 10
-15.25
 20
-30.7
 40
1.75
  0
CIRCLE
  5
F7
100
AcDbEntity
  8
0
  6
ByLayer
 62
  256
370
   -1
100
AcDbCircle
 10
15.25
 20
-30.7
 40
1.75
  0
LINE
  5
F8
100
AcDbEntity
  8
0
  6
ByLayer
 62
  256
370
   -1
100
AcDbLine
 10
0
 20
0
 11
1.850000000000002
 21
30.7
  0
LINE
  5
F9
100
AcDbEntity
  8
0
  6
ByLayer
 62
  256
370
   -1
100
AcDbLine
 10
1.850000000000002
 20
30.7
 11
6.850000000000001
 21
30.7
  0
LINE
  5
FA
100
AcDbEntity
  8
0
  6
ByLayer
 62
  256
370
   -1
100
AcDbLine
 10
6.850000000000001
 20
30.7
 11
8.850000000000001
 21
0
  0
LINE
  5
FB
100
AcDbEntity
  8
0
  6
ByLayer
 62
  256
370
   -1
100
AcDbLine
 10
8.850000000000001
 20
0
 11
6.850000000000001
 21
-30.7
  0
LINE
  5
FC
100
AcDbEntity
  8
0
  6
ByLayer
 62
  256
370
   -1
100
AcDbLine
 10
6.850000000000001
 20
-30.7
 11
1.850000000000002
 21
-30.7
  0
LINE
  5
FD
100
AcDbEntity
  8
0
  6
ByLayer
 62
  256
370
   -1
100
AcDbLine
 10
1.850000000000002
 20
-30.7
 11
0
 21
0
  0
LINE
  5
FE
100
AcDbEntity
  8
construction
  6
ByLayer
 62
  256
370
   -1
100
AcDbLine
 10
-15.25
 20
33.95
 11
16.15
 21
33.95
  0
LINE
  5
FF
100
AcDbEntity
  8
construction
  6
ByLayer
 62
  256
370
   -1
100
AcDbLine
 10
-15.25
 20
30.7
 11
16.15
 21
30.7
  0
LINE
  5
100
100
AcDbEntity
  8
construction
  6
ByLayer
 62
  256
370
   -1
100
AcDbLine
 10
-15.25
 20
0
 11
16.15
 21
0
  0
LINE
  5
101
100
AcDbEntity
  8
construction
  6
ByLayer
 62
  256
370
   -1
100
AcDbLine
 10
-15.25
 20
-30.7
 11
16.15
 21
-30.7
  0
LINE
  5
102
100
AcDbEntity
  8
construction
  6
ByLayer
 62
  256
370
   -1
100
AcDbLine
 10
-15.25
 20
-33.95
 11
16.15
 21
-33.95
  0
LINE
  5
103
100
AcDbEntity
  8
construction
  6
ByLayer
 62
  256
370
   -1
100
AcDbLine
 10
-16.15
 20
33.95
 11
-16.15
 21
-33.95
  0
LINE
  5
104
100
AcDbEntity
  8
construction
  6
ByLayer
 62
  256
370
   -1
100
AcDbLine
 10
-15.25
 20
33.95
 11
-15.25
 21
-33.95
  0
LINE
  5
105
100
AcDbEntity
  8
construction
  6
ByLayer
 62
  256
370
   -1
100
AcDbLine
 10
0
 20
33.95
 11
0
 21
-33.95
  0
LINE
  5
106
100
AcDbEntity
  8
construction
  6
ByLayer
 62
  256
370
   -1
100
AcDbLine
 10
1.850000000000001
 20
33.95
 11
1.850000000000001
 21
-33.95
  0
LINE
  5
107
100
AcDbEntity
  8
construction
  6
ByLayer
 62
  256
370
   -1
100
AcDbLine
 10
6.850000000000001
 20
33.95
 11
6.850000000000001
 21
-33.95
  0
LINE
  5
108
100
AcDbEntity
  8
construction
  6
ByLayer
 62
  256
370
   -1
100
AcDbLine
 10
8.850000000000001
 20
33.95
 11
8.850000000000001
 21
-33.95
  0
LINE
  5
109
100
AcDbEntity
  8
construction
  6
ByLayer
 62
  256
370
   -1
100
AcDbLine
 10
15.25
 20
33.95
 11
15.25
 21
-33.95
  0
LINE
  5
10A
100
AcDbEntity
  8
construction
  6
ByLayer
 62
  256
370
   -1
100
AcDbLine
 10
16.15
 20
33.95
 11
16.15
 21
-33.95
  0
ENDBLK
  5
75
330
73
100
AcDbEntity
  8
0
100
AcDbBlockEnd
  0
BLOCK
  5
77
330
76
100
AcDbEntity
  8
0
100
AcDbBlockBegin
  2
cmark
 70
    0
 10
0
 20
0
  3
cmark
  1

  0
CIRCLE
  5
10B
100
AcDbEntity
  8
0
  6
ByLayer
 62
  256
370
   -1
100
AcDbCircle
 10
0
 20
0
 40
0.2
  0
ENDBLK
  5
78
330
76
100
AcDbEntity
  8
0
100
AcDbBlockEnd
  0
BLOCK
  5
7A
330
79
100
AcDbEntity
  8
0
100
AcDbBlockBegin
  2
screw
 70
    0
 10
0
 20
0
  3
screw
  1

  0
LINE
  5
10C
100
AcDbEntity
  8
0
  6
CONTINUOUS
 62
    0
370
    0
100
AcDbLine
 10
0.43413
 20
0.3465
 11
2
 21
0.3465
  0
LINE
  5
10D
100
AcDbEntity
  8
0
  6
CONTINUOUS
 62
    0
370
    0
100
AcDbLine
 10
0.425681
 20
-0.3465
 11
2
 21
-0.3465
  0
LINE
  5
10E
100
AcDbEntity
  8
0
  6
CONTINUOUS
 62
    0
370
    0
100
AcDbLine
 10
0
 20
1
 11
0
 21
-1
  0
LINE
  5
10F
100
AcDbEntity
  8
0
  6
CONTINUOUS
 62
    0
370
    0
100
AcDbLine
 10
-0.7
 20
0.938758
 11
0
 21
1
  0
LINE
  5
110
100
AcDbEntity
  8
0
  6
CONTINUOUS
 62
    0
370
    0
100
AcDbLine
 10
-0.7
 20
-0.938758
 11
0
 21
-1
  0
LINE
  5
111
100
AcDbEntity
  8
0
  6
CONTINUOUS
 62
    0
370
    0
100
AcDbLine
 10
-0.4
 20
0.125
 11
-0.4
 21
-0.125
  0
LINE
  5
112
100
AcDbEntity
  8
0
  6
CONTINUOUS
 62
    0
370
    0
100
AcDbLine
 10
-0.7
 20
-0.125
 11
-0.4
 21
-0.125
  0
LINE
  5
113
100
AcDbEntity
  8
0
  6
CONTINUOUS
 62
    0
370
    0
100
AcDbLine
 10
-0.7
 20
0.125
 11
-0.4
 21
0.125
  0
LINE
  5
114
100
AcDbEntity
  8
0
  6
CONTINUOUS
 62
    0
370
    0
100
AcDbLine
 10
-0.7
 20
0.938758
 11
-0.7
 21
0.125
  0
LINE
  5
115
100
AcDbEntity
  8
0
  6
CONTINUOUS
 62
    0
370
    0
100
AcDbLine
 10
-0.7
 20
-0.125
 11
-0.7
 21
-0.938758
  0
ARC
  5
116
100
AcDbEntity
  8
0
  6
CONTINUOUS
 62
    0
370
    0
100
AcDbCircle
 10
0.12
 20
0.42
 40
0.12
100
AcDbArc
 50
180
 51
270
  0
LINE
  5
117
100
AcDbEntity
  8
0
  6
CONTINUOUS
 62
    0
370
    0
100
AcDbLine
 10
0.12
 20
0.3
 11
0.321436
 21
0.3
  0
ARC
  5
118
100
AcDbEntity
  8
0
  6
CONTINUOUS
 62
    0
370
    0
100
AcDbCircle
 10
0.321436
 20
0.42
 40
0.12
100
AcDbArc
 50
270
 51
305
  0
LINE
  5
119
100
AcDbEntity
  8
0
  6
CONTINUOUS
 62
    0
370
    0
100
AcDbLine
 10
0.390265
 20
0.321702
 11
0.6449009999999999
 21
0.5
  0
LINE
  5
11A
100
AcDbEntity
  8
0
  6
CONTINUOUS
 62
    0
370
    0
100
AcDbLine
 10
0.6449009999999999
 20
0.5
 11
0.6449009999999999
 21
-0.5
  0
ARC
  5
11B
100
AcDbEntity
  8
0
  6
CONTINUOUS
 62
    0
370
    0
100
AcDbCircle
 10
0.12
 20
-0.42
 40
0.12
100
AcDbArc
 50
90
 51
180
  0
LINE
  5
11C
100
AcDbEntity
  8
0
  6
CONTINUOUS
 62
    0
370
    0
100
AcDbLine
 10
0.12
 20
-0.3
 11
0.321436
 21
-0.3
  0
ARC
  5
11D
100
AcDbEntity
  8
0
  6
CONTINUOUS
 62
    0
370
    0
100
AcDbCircle
 10
0.321436
 20
-0.42
 40
0.12
100
AcDbArc
 50
55
 51
90
  0
LINE
  5
11E
100
AcDbEntity
  8
0
  6
CONTINUOUS
 62
    0
370
    0
100
AcDbLine
 10
0.390265
 20
-0.321702
 11
0.6449009999999999
 21
-0.5
  0
LINE
  5
11F
100
AcDbEntity
  8
0
  6
CONTINUOUS
 62
    0
370
    0
100
AcDbLine
 10
1.8465
 20
-0.5
 11
0.6449009999999999
 21
-0.5
  0
LINE
  5
120
100
AcDbEntity
  8
0
  6
CONTINUOUS
 62
    0
370
    0
100
AcDbLine
 10
1.8465
 20
-0.5
 11
2
 21
-0.3465
  0
LINE
  5
121
100
AcDbEntity
  8
0
  6
CONTINUOUS
 62
    0
370
    0
100
AcDbLine
 10
2
 20
0.3465
 11
2
 21
-0.3465
  0
LINE
  5
122
100
AcDbEntity
  8
0
  6
CONTINUOUS
 62
    0
370
    0
100
AcDbLine
 10
1.8465
 20
0.5
 11
2
 21
0.3465
  0
LINE
  5
123
100
AcDbEntity
  8
0
  6
CONTINUOUS
 62
    0
370
    0
100
AcDbLine
 10
0.6449009999999999
 20
0.5
 11
1.8465
 21
0.5
  0
LINE
  5
124
100
AcDbEntity
  8
0
  6
CONTINUOUS
 62
    0
370
    0
100
AcDbLine
 10
1.8465
 20
0.5
 11
1.8465
 21
-0.5
  0
ENDBLK
  5
7B
330
79
100
AcDbEntity
  8
0
100
AcDbBlockEnd
  0
BLOCK
  5
7D
330
7C
100
AcDbEntity
  8
0
100
AcDbBlockBegin
  2
a3
 70
    0
 10
0
 20
0
  3
a3
  1

  0
HATCH
  5
125
100
AcDbEntity
  8
hatch
  6
ByLayer
 62
  256
370
   -1
100
AcDbHatch
 10
0
 20
0
 30
0
210
0
220
0
230
1
  2
ansi31
 70
    0
 71
    0
 91
    1
 92
    0
 93
    3
 72
    1
 10
15.66987298107769
 20
146
 11
15.66987298107771
 21
151
 72
    1
 10
15.66987298107771
 20
151
 11
19.99999999999989
 21
148.5
 72
    1
 10
19.99999999999989
 20
148.5
 11
15.66987298107769
 21
146
 97
    0
 75
    0
 76
    1
 52
0
 41
0.5
 77
    0
 78
    0
 98
    0
  0
HATCH
  5
126
100
AcDbEntity
  8
hatch
  6
ByLayer
 62
  256
370
   -1
100
AcDbHatch
 10
0
 20
0
 30
0
210
0
220
0
230
1
  2
ansi31
 70
    0
 71
    0
 91
    1
 92
    0
 93
    3
 72
    1
 10
414.3301270189227
 20
146.0000000000001
 11
414.3301270189222
 21
150.9999999999998
 72
    1
 10
414.3301270189222
 20
150.9999999999998
 11
410.0000000000002
 21
148.5
 72
    1
 10
410.0000000000002
 20
148.5
 11
414.3301270189227
 21
146.0000000000001
 97
    0
 75
    0
 76
    1
 52
3.141592653589793
 41
0.5
 77
    0
 78
    0
 98
    0
  0
HATCH
  5
127
100
AcDbEntity
  8
hatch
  6
ByLayer
 62
  256
370
   -1
100
AcDbHatch
 10
0
 20
0
 30
0
210
0
220
0
230
1
  2
ansi31
 70
    0
 71
    0
 91
    1
 92
    0
 93
    3
 72
    1
 10
122.499976
 20
5.669848981077905
 11
127.4999760000001
 21
5.669848981077732
 72
    1
 10
127.4999760000001
 20
5.669848981077732
 11
124.9999760000001
 21
9.999976000000135
 72
    1
 10
124.9999760000001
 20
9.999976000000135
 11
122.499976
 21
5.669848981077905
 97
    0
 75
    0
 76
    1
 52
4.71238898038469
 41
0.5
 77
    0
 78
    0
 98
    0
  0
HATCH
  5
128
100
AcDbEntity
  8
hatch
  6
ByLayer
 62
  256
370
   -1
100
AcDbHatch
 10
0
 20
0
 30
0
210
0
220
0
230
1
  2
ansi31
 70
    0
 71
    0
 91
    1
 92
    0
 93
    3
 72
    1
 10
227.4999760000001
 20
5.66984898107723
 11
232.4999760000001
 21
5.669848981077044
 72
    1
 10
232.4999760000001
 20
5.669848981077044
 11
229.9999760000001
 21
9.999976000000681
 72
    1
 10
229.9999760000001
 20
9.999976000000681
 11
227.4999760000001
 21
5.66984898107723
 97
    0
 75
    0
 76
    1
 52
4.71238898038469
 41
0.5
 77
    0
 78
    0
 98
    0
  0
HATCH
  5
129
100
AcDbEntity
  8
hatch
  6
ByLayer
 62
  256
370
   -1
100
AcDbHatch
 10
0
 20
0
 30
0
210
0
220
0
230
1
  2
ansi31
 70
    0
 71
    0
 91
    1
 92
    0
 93
    3
 72
    1
 10
312.5
 20
5.66984898107766
 11
317.5
 21
5.669848981077923
 72
    1
 10
317.5
 20
5.669848981077923
 11
315
 21
9.999975999999624
 72
    1
 10
315
 20
9.999975999999624
 11
312.5
 21
5.66984898107766
 97
    0
 75
    0
 76
    1
 52
4.71238898038469
 41
0.5
 77
    0
 78
    0
 98
    0
  0
HATCH
  5
12A
100
AcDbEntity
  8
hatch
  6
ByLayer
 62
  256
370
   -1
100
AcDbHatch
 10
0
 20
0
 30
0
210
0
220
0
230
1
  2
ansi31
 70
    0
 71
    0
 91
    1
 92
    0
 93
    3
 72
    1
 10
312.4999999999999
 20
291.3301510189223
 11
317.4999999999999
 21
291.3301510189222
 72
    1
 10
317.4999999999999
 20
291.3301510189222
 11
315
 21
287.0000240000001
 72
    1
 10
315
 20
287.0000240000001
 11
312.4999999999999
 21
291.3301510189223
 97
    0
 75
    0
 76
    1
 52
4.71238898038469
 41
0.5
 77
    0
 78
    0
 98
    0
  0
HATCH
  5
12B
100
AcDbEntity
  8
hatch
  6
ByLayer
 62
  256
370
   -1
100
AcDbHatch
 10
0
 20
0
 30
0
210
0
220
0
230
1
  2
ansi31
 70
    0
 71
    0
 91
    1
 92
    0
 93
    3
 72
    1
 10
227.4999760000001
 20
291.3301510189222
 11
232.4999759999999
 21
291.3301510189223
 72
    1
 10
232.4999759999999
 20
291.3301510189223
 11
229.9999760000001
 21
287.000024
 72
    1
 10
229.9999760000001
 20
287.000024
 11
227.4999760000001
 21
291.3301510189222
 97
    0
 75
    0
 76
    1
 52
4.71238898038469
 41
0.5
 77
    0
 78
    0
 98
    0
  0
HATCH
  5
12C
100
AcDbEntity
  8
hatch
  6
ByLayer
 62
  256
370
   -1
100
AcDbHatch
 10
0
 20
0
 30
0
210
0
220
0
230
1
  2
ansi31
 70
    0
 71
    0
 91
    1
 92
    0
 93
    3
 72
    1
 10
122.4999759999999
 20
291.3301510189223
 11
127.4999760000001
 21
291.3301510189222
 72
    1
 10
127.4999760000001
 20
291.3301510189222
 11
124.999976
 21
287.0000239999999
 72
    1
 10
124.999976
 20
287.0000239999999
 11
122.4999759999999
 21
291.3301510189223
 97
    0
 75
    0
 76
    1
 52
4.71238898038469
 41
0.5
 77
    0
 78
    0
 98
    0
  0
LINE
  5
12D
100
AcDbEntity
  8
default
  6
ByLayer
 62
  256
370
   -1
100
AcDbLine
 10
280.2711420000001
 20
57.24287599999997
 11
300.2711420000001
 21
57.24287599999987
  0
CIRCLE
  5
12E
100
AcDbEntity
  8
default
  6
ByLayer
 62
  256
370
   -1
100
AcDbCircle
 10
295.4711420000001
 20
57.24287599999973
 40
2.8
  0
CIRCLE
  5
12F
100
AcDbEntity
  8
default
  6
ByLayer
 62
  256
370
   -1
100
AcDbCircle
 10
295.4711420000001
 20
57.24287599999973
 40
1.6
  0
LINE
  5
130
100
AcDbEntity
  8
default
  6
ByLayer
 62
  256
370
   -1
100
AcDbLine
 10
282.6711419999999
 20
58.84287599999995
 11
282.6711419999999
 21
55.64287600000003
  0
LINE
  5
131
100
AcDbEntity
  8
default
  6
ByLayer
 62
  256
370
   -1
100
AcDbLine
 10
282.6711419999999
 20
55.64287600000003
 11
289.071142
 21
54.44287599999993
  0
LINE
  5
132
100
AcDbEntity
  8
default
  6
ByLayer
 62
  256
370
   -1
100
AcDbLine
 10
289.071142
 20
60.04287600000005
 11
289.071142
 21
54.44287599999993
  0
LINE
  5
133
100
AcDbEntity
  8
default
  6
ByLayer
 62
  256
370
   -1
100
AcDbLine
 10
282.6711419999999
 20
58.84287599999995
 11
289.071142
 21
60.04287600000005
  0
LINE
  5
134
100
AcDbEntity
  8
default
  6
ByLayer
 62
  256
370
   -1
100
AcDbLine
 10
295.4711420000001
 20
52.44287599999988
 11
295.4711420000001
 21
62.04287600000004
  0
ENDBLK
  5
7E
330
7C
100
AcDbEntity
  8
0
100
AcDbBlockEnd
  0
ENDSEC
  0
SECTION
  2
ENTITIES
  0
LINE
  5
135
100
AcDbEntity
  8
construction
  6
ByLayer
 62
  256
370
   -1
100
AcDbLine
 10
0
 20
0
 11
170
 21
0
  0
LINE
  5
136
100
AcDbEntity
  8
construction
  6
ByLayer
 62
  256
370
   -1
100
AcDbLine
 10
0
 20
0
 11
7.347638122934264e-15
 21
120
  0
LINE
  5
137
100
AcDbEntity
  8
construction
  6
ByLayer
 62
  256
370
   -1
100
AcDbLine
 10
170
 20
0
 11
170
 21
120
  0
LINE
  5
138
100
AcDbEntity
  8
construction
  6
ByLayer
 62
  256
370
   -1
100
AcDbLine
 10
7.347638122934264e-15
 20
120
 11
170
 21
120
  0
LINE
  5
139
100
AcDbEntity
  8
construction
  6
ByLayer
 62
  256
370
   -1
100
AcDbLine
 10
85
 20
0
 11
85.00000000000001
 21
120
  0
LINE
  5
13A
100
AcDbEntity
  8
construction
  6
ByLayer
 62
  256
370
   -1
100
AcDbLine
 10
3.673819061467132e-15
 20
60
 11
170
 21
60
  0
LINE
  5
13B
100
AcDbEntity
  8
construction
  6
ByLayer
 62
  256
370
   -1
100
AcDbLine
 10
42.5
 20
0
 11
42.50000000000001
 21
170
  0
LINE
  5
13C
100
AcDbEntity
  8
construction
  6
ByLayer
 62
  256
370
   -1
100
AcDbLine
 10
127.5
 20
0
 11
127.5
 21
170
  0
LINE
  5
13D
100
AcDbEntity
  8
construction
  6
ByLayer
 62
  256
370
   -1
100
AcDbLine
 10
164.7
 20
-1.95202252799287e-14
 11
164.7
 21
120
  0
LINE
  5
13E
100
AcDbEntity
  8
construction
  6
ByLayer
 62
  256
370
   -1
100
AcDbLine
 10
5.299999999999997
 20
9.760112639964348e-15
 11
5.300000000000011
 21
120
  0
LINE
  5
13F
100
AcDbEntity
  8
construction
  6
ByLayer
 62
  256
370
   -1
100
AcDbLine
 10
6.992502280325774e-15
 20
114.2
 11
170
 21
114.2
  0
LINE
  5
140
100
AcDbEntity
  8
construction
  6
ByLayer
 62
  256
370
   -1
100
AcDbLine
 10
-6.282230595108796e-15
 20
5.799999999999997
 11
170
 21
5.799999999999997
  0
CIRCLE
  5
141
100
AcDbEntity
  8
0
  6
ByLayer
 62
  256
370
   -1
100
AcDbCircle
 10
5.30000000000001
 20
114.2
 40
3.8
  0
CIRCLE
  5
142
100
AcDbEntity
  8
0
  6
ByLayer
 62
  256
370
   -1
100
AcDbCircle
 10
164.7
 20
114.2
 40
3.8
  0
CIRCLE
  5
143
100
AcDbEntity
  8
0
  6
ByLayer
 62
  256
370
   -1
100
AcDbCircle
 10
164.7
 20
5.799999999999997
 40
3.8
  0
CIRCLE
  5
144
100
AcDbEntity
  8
0
  6
ByLayer
 62
  256
370
   -1
100
AcDbCircle
 10
5.299999999999998
 20
5.799999999999997
 40
3.8
  0
LWPOLYLINE
  5
145
100
AcDbEntity
  8
0
  6
ByLayer
 62
  256
370
   -1
100
AcDbPolyline
 90
    8
 70
    1
 43
0
 10
4.800000000000007
 20
120
 10
165.2
 20
120
 42
-0.4142135623730941
 10
170
 20
115.2
 10
170
 20
4.799999999999996
 42
-0.4142135623730945
 10
165.2
 20
0
 10
4.80000000000001
 20
0
 42
-0.4142135623730953
 10
7.105427357601002e-15
 20
4.8
 10
7.993605777301127e-15
 20
115.2
 42
-0.4142135623730943
  0
LINE
  5
146
100
AcDbEntity
  8
construction
  6
ByLayer
 62
  256
370
   -1
100
AcDbLine
 10
5.339283702665565e-15
 20
105.2
 11
170
 21
105.2
  0
INSERT
  5
147
100
AcDbEntity
  8
0
  6
ByLayer
 62
  256
370
   -1
100
AcDbBlockReference
  2
cmark
 10
164.7
 20
114.2
 30
0
 41
1
 42
1
 43
0
 50
0
 70
    1
 71
    1
 44
1
 45
1
  0
INSERT
  5
148
100
AcDbEntity
  8
0
  6
ByLayer
 62
  256
370
   -1
100
AcDbBlockReference
  2
cmark
 10
164.7
 20
5.799999999999997
 30
0
 41
1
 42
1
 43
0
 50
0
 70
    1
 71
    1
 44
1
 45
1
  0
INSERT
  5
149
100
AcDbEntity
  8
0
  6
ByLayer
 62
  256
370
   -1
100
AcDbBlockReference
  2
cmark
 10
5.299999999999998
 20
5.799999999999997
 30
0
 41
1
 42
1
 43
0
 50
0
 70
    1
 71
    1
 44
1
 45
1
  0
INSERT
  5
14A
100
AcDbEntity
  8
0
  6
ByLayer
 62
  256
370
   -1
100
AcDbBlockReference
  2
cmark
 10
5.30000000000001
 20
114.2
 30
0
 41
1
 42
1
 43
0
 50
0
 70
    1
 71
    1
 44
1
 45
1
  0
INSERT
  5
14B
100
AcDbEntity
  8
0
  6
ByLayer
 62
  256
370
   -1
100
AcDbBlockReference
  2
cmark
 10
20.75000000000001
 20
81.75
 30
0
 41
1
 42
1
 43
0
 50
0
 70
    1
 71
    1
 44
1
 45
1
  0
INSERT
  5
14C
100
AcDbEntity
  8
0
  6
ByLayer
 62
  256
370
   -1
100
AcDbBlockReference
  2
cmark
 10
44.55000000000002
 20
109.7
 30
0
 41
1
 42
1
 43
0
 50
0
 70
    1
 71
    1
 44
1
 45
1
  0
INSERT
  5
14D
100
AcDbEntity
  8
0
  6
ByLayer
 62
  256
370
   -1
100
AcDbBlockReference
  2
cmark
 10
44.55000000000002
 20
100.7
 30
0
 41
1
 42
1
 43
0
 50
0
 70
    1
 71
    1
 44
1
 45
1
  0
INSERT
  5
14E
100
AcDbEntity
  8
0
  6
ByLayer
 62
  256
370
   -1
100
AcDbBlockReference
  2
cmark
 10
64.25
 20
81.75
 30
0
 41
1
 42
1
 43
0
 50
0
 70
    1
 71
    1
 44
1
 45
1
  0
INSERT
  5
14F
100
AcDbEntity
  8
0
  6
ByLayer
 62
  256
370
   -1
100
AcDbBlockReference
  2
cmark
 10
112.25
 20
90.7
 30
0
 41
1
 42
1
 43
0
 50
0
 70
    1
 71
    1
 44
1
 45
1
  0
INSERT
  5
150
100
AcDbEntity
  8
0
  6
ByLayer
 62
  256
370
   -1
100
AcDbBlockReference
  2
cmark
 10
121.55
 20
109.7
 30
0
 41
1
 42
1
 43
0
 50
0
 70
    1
 71
    1
 44
1
 45
1
  0
INSERT
  5
151
100
AcDbEntity
  8
0
  6
ByLayer
 62
  256
370
   -1
100
AcDbBlockReference
  2
cmark
 10
121.55
 20
100.7
 30
0
 41
1
 42
1
 43
0
 50
0
 70
    1
 71
    1
 44
1
 45
1
  0
INSERT
  5
152
100
AcDbEntity
  8
0
  6
ByLayer
 62
  256
370
   -1
100
AcDbBlockReference
  2
cmark
 10
142.75
 20
90.7
 30
0
 41
1
 42
1
 43
0
 50
0
 70
    1
 71
    1
 44
1
 45
1
  0
INSERT
  5
153
100
AcDbEntity
  8
0
  6
ByLayer
 62
  256
370
   -1
100
AcDbBlockReference
  2
cmark
 10
64.25
 20
38.25
 30
0
 41
1
 42
1
 43
0
 50
0
 70
    1
 71
    1
 44
1
 45
1
  0
INSERT
  5
154
100
AcDbEntity
  8
0
  6
ByLayer
 62
  256
370
   -1
100
AcDbBlockReference
  2
cmark
 10
112.25
 20
29.3
 30
0
 41
1
 42
1
 43
0
 50
0
 70
    1
 71
    1
 44
1
 45
1
  0
INSERT
  5
155
100
AcDbEntity
  8
0
  6
ByLayer
 62
  256
370
   -1
100
AcDbBlockReference
  2
cmark
 10
142.75
 20
29.3
 30
0
 41
1
 42
1
 43
0
 50
0
 70
    1
 71
    1
 44
1
 45
1
  0
DIMENSION
  5
156
100
AcDbEntity
  8
dims
  6
ByLayer
 62
  256
370
   -1
100
AcDbDimension
  2
*D1
 10
58.50000000000001
 20
90
 30
0
 11
42.50000000000001
 21
91.875
 31
0
 70
   33
 71
    5
  3
Standard
 53
0
210
0
220
0
230
1
100
AcDbAlignedDimension
 13
26.50000000000001
 23
76
 33
0
 14
58.50000000000001
 24
76
 34
0
  0
DIMENSION
  5
157
100
AcDbEntity
  8
dims
  6
ByLayer
 62
  256
370
   -1
100
AcDbDimension
  2
*D2
 10
10
 20
44
 30
0
 11
8.125
 21
60
 31
0
 70
   33
 71
    5
  3
Standard
 53
0
210
0
220
0
230
1
100
AcDbAlignedDimension
 13
26.50000000000001
 23
76
 33
0
 14
26.50000000000001
 24
44
 34
0
  0
DIMENSION
  5
158
100
AcDbEntity
  8
dims
  6
ByLayer
 62
  256
370
   -1
100
AcDbDimension
  2
*D3
 10
115.3
 20
130
 30
0
 11
85.00000000000001
 21
131.875
 31
0
 70
   33
 71
    5
  3
Standard
 53
0
210
0
220
0
230
1
100
AcDbAlignedDimension
 13
54.70000000000002
 23
112.7
 33
0
 14
115.3
 24
112.7
 34
0
  0
DIMENSION
  5
159
100
AcDbEntity
  8
dims
  6
ByLayer
 62
  256
370
   -1
100
AcDbDimension
  2
*D4
 10
140
 20
97.7
 30
0
 11
138.125
 21
105.2
 31
0
 70
   33
 71
    5
  3
Standard
 53
0
210
0
220
0
230
1
100
AcDbAlignedDimension
 13
115.3
 23
112.7
 33
0
 14
115.3
 24
97.7
 34
0
  0
DIMENSION
  5
15A
100
AcDbEntity
  8
dims
  6
ByLayer
 62
  256
370
   -1
100
AcDbDimension
  2
*D5
 10
160
 20
29.29999999999999
 30
0
 11
158.125
 21
60
 31
0
 70
   33
 71
    5
  3
Standard
 53
0
210
0
220
0
230
1
100
AcDbAlignedDimension
 13
134.35
 23
90.7
 33
0
 14
134.35
 24
29.3
 34
0
  0
DIMENSION
  5
15B
100
AcDbEntity
  8
dims
  6
ByLayer
 62
  256
370
   -1
100
AcDbDimension
  2
*D6
 10
136.35
 20
10
 30
0
 11
131.925
 21
11.875
 31
0
 70
   33
 71
    5
  3
Standard
 53
0
210
0
220
0
230
1
100
AcDbAlignedDimension
 13
127.5
 23
60
 33
0
 14
136.35
 24
60
 34
0
  0
DIMENSION
  5
15C
100
AcDbEntity
  8
dims
  6
ByLayer
 62
  256
370
   -1
100
AcDbDimension
  2
*D7
 10
64.51720164630608
 20
139.9335597178659
 30
0
 11
42.67578279213497
 21
141.9085400814794
 31
0
 70
   33
 71
    5
  3
Standard
 53
0
210
0
220
0
230
1
100
AcDbAlignedDimension
 13
20.55000000000001
 23
81.75
 33
0
 14
64.25
 24
81.55
 34
0
  0
DIMENSION
  5
15D
100
AcDbEntity
  8
dims
  6
ByLayer
 62
  256
370
   -1
100
AcDbDimension
  2
*D8
 10
142.75
 20
0
 30
0
 11
127.5
 21
1.875
 31
0
 70
   33
 71
    5
  3
Standard
 53
0
210
0
220
0
230
1
100
AcDbAlignedDimension
 13
112.25
 23
29.1
 33
0
 14
142.75
 24
29.1
 34
0
  0
DIMENSION
  5
15E
100
AcDbEntity
  8
dims
  6
ByLayer
 62
  256
370
   -1
100
AcDbDimension
  2
*D9
 10
64.25
 20
81.75
 30
0
 11
68.45548042084073
 21
77.42189070043992
 31
0
 70
   36
 71
    5
  3
Standard
 53
0
210
0
220
0
230
1
100
AcDbRadialDimension
 15
64.90932929597123
 25
80.40267491692833
 35
0
 40
0
  0
INSERT
  5
15F
100
AcDbEntity
  8
0
  6
ByLayer
 62
  256
370
   -1
100
AcDbBlockReference
  2
cmark
 10
20.75000000000001
 20
38.25
 30
0
 41
1
 42
1
 43
0
 50
0
 70
    1
 71
    1
 44
1
 45
1
  0
INSERT
  5
160
100
AcDbEntity
  8
blocks
  6
ByLayer
 62
  256
370
   -1
100
AcDbBlockReference
  2
display
 10
85.00000000000001
 20
105.2
 30
0
 41
1
 42
1
 43
0
 50
0
 70
    1
 71
    1
 44
1
 45
1
  0
INSERT
  5
161
100
AcDbEntity
  8
blocks
  6
ByLayer
 62
  256
370
   -1
100
AcDbBlockReference
  2
joystick
 10
42.50000000000001
 20
60
 30
0
 41
1
 42
1
 43
0
 50
0
 70
    1
 71
    1
 44
1
 45
1
  0
INSERT
  5
162
100
AcDbEntity
  8
blocks
  6
ByLayer
 62
  256
370
   -1
100
AcDbBlockReference
  2
throttle
 10
127.5
 20
60
 30
0
 41
1
 42
1
 43
0
 50
0
 70
    1
 71
    1
 44
1
 45
1
  0
ENDSEC
  0
SECTION
  2
OBJECTS
  0
DICTIONARY
  5
C
330
0
100
AcDbDictionary
281
    1
  3
ACAD_GROUP
350
D
  0
DICTIONARY
  5
D
330
C
100
AcDbDictionary
281
    1
  0
PLOTSETTINGS
  5
163
100
AcDbPlotSettings
  6
1x1
 40
0
 41
0
 42
0
 43
0
  0
ENDSEC
  0
EOF
